<?xml version="1.0" encoding="utf-8"?>
<!DOCTYPE svg PUBLIC "-//W3C//DTD SVG 20010904//EN" "http://www.w3.org/TR/2001/REC-SVG-20010904/DTD/svg10.dtd">
<svg xmlns="http://www.w3.org/2000/svg" xml:space="preserve" xmlns:xlink="http://www.w3.org/1999/xlink" width="720" height="720" viewBox="0 0 720 720">
<desc></desc>
<rect width="720" height="720" fill="#ffffff" cx="0" cy="0" />
<defs>
<rect id="p" width="16" height="16" />
<circle id="circle" r="8" stroke-width="0" fill="000000" />
<rect id="hor" width="16" height="4" />
<rect id="ver" width="4" height="16" />
<polygon id="3d1" points="0,0 16,0 0,16" stroke-width="0" fill="000000" />
<polygon id="3d2" points="0,16 16,0 16,16" stroke-width="0" fill="#808080" />
</defs>
<g fill="#000000">
<use x="32" y="32" xlink:href="#p" />
<use x="48" y="32" xlink:href="#p" />
<use x="64" y="32" xlink:href="#p" />
<use x="80" y="32" xlink:href="#p" />
<use x="96" y="32" xlink:href="#p" />
<use x="112" y="32" xlink:href="#p" />
<use x="128" y="32" xlink:href="#p" />
<use x="160" y="32" xlink:href="#p" />
<use x="192" y="32" xlink:href="#p" />
<use x="256" y="32" xlink:href="#p" />
<use x="272" y="32" xlink:href="#p" />
<use x="288" y="32" xlink:href="#p" />
<use x="320" y="32" xlink:href="#p" />
<use x="352" y="32" xlink:href="#p" />
<use x="384" y="32" xlink:href="#p" />
<use x="416" y="32" xlink:href="#p" />
<use x="432" y="32" xlink:href="#p" />
<use x="528" y="32" xlink:href="#p" />
<use x="544" y="32" xlink:href="#p" />
<use x="576" y="32" xlink:href="#p" />
<use x="592" y="32" xlink:href="#p" />
<use x="608" y="32" xlink:href="#p" />
<use x="624" y="32" xlink:href="#p" />
<use x="640" y="32" xlink:href="#p" />
<use x="656" y="32" xlink:href="#p" />
<use x="672" y="32" xlink:href="#p" />
<use x="32" y="48" xlink:href="#p" />
<use x="128" y="48" xlink:href="#p" />
<use x="176" y="48" xlink:href="#p" />
<use x="208" y="48" xlink:href="#p" />
<use x="224" y="48" xlink:href="#p" />
<use x="272" y="48" xlink:href="#p" />
<use x="288" y="48" xlink:href="#p" />
<use x="304" y="48" xlink:href="#p" />
<use x="320" y="48" xlink:href="#p" />
<use x="352" y="48" xlink:href="#p" />
<use x="400" y="48" xlink:href="#p" />
<use x="416" y="48" xlink:href="#p" />
<use x="448" y="48" xlink:href="#p" />
<use x="464" y="48" xlink:href="#p" />
<use x="480" y="48" xlink:href="#p" />
<use x="512" y="48" xlink:href="#p" />
<use x="544" y="48" xlink:href="#p" />
<use x="576" y="48" xlink:href="#p" />
<use x="672" y="48" xlink:href="#p" />
<use x="32" y="64" xlink:href="#p" />
<use x="64" y="64" xlink:href="#p" />
<use x="80" y="64" xlink:href="#p" />
<use x="96" y="64" xlink:href="#p" />
<use x="128" y="64" xlink:href="#p" />
<use x="176" y="64" xlink:href="#p" />
<use x="192" y="64" xlink:href="#p" />
<use x="208" y="64" xlink:href="#p" />
<use x="240" y="64" xlink:href="#p" />
<use x="272" y="64" xlink:href="#p" />
<use x="304" y="64" xlink:href="#p" />
<use x="336" y="64" xlink:href="#p" />
<use x="368" y="64" xlink:href="#p" />
<use x="384" y="64" xlink:href="#p" />
<use x="400" y="64" xlink:href="#p" />
<use x="416" y="64" xlink:href="#p" />
<use x="496" y="64" xlink:href="#p" />
<use x="512" y="64" xlink:href="#p" />
<use x="528" y="64" xlink:href="#p" />
<use x="576" y="64" xlink:href="#p" />
<use x="608" y="64" xlink:href="#p" />
<use x="624" y="64" xlink:href="#p" />
<use x="640" y="64" xlink:href="#p" />
<use x="672" y="64" xlink:href="#p" />
<use x="32" y="80" xlink:href="#p" />
<use x="64" y="80" xlink:href="#p" />
<use x="80" y="80" xlink:href="#p" />
<use x="96" y="80" xlink:href="#p" />
<use x="128" y="80" xlink:href="#p" />
<use x="176" y="80" xlink:href="#p" />
<use x="192" y="80" xlink:href="#p" />
<use x="208" y="80" xlink:href="#p" />
<use x="224" y="80" xlink:href="#p" />
<use x="272" y="80" xlink:href="#p" />
<use x="288" y="80" xlink:href="#p" />
<use x="336" y="80" xlink:href="#p" />
<use x="352" y="80" xlink:href="#p" />
<use x="384" y="80" xlink:href="#p" />
<use x="480" y="80" xlink:href="#p" />
<use x="496" y="80" xlink:href="#p" />
<use x="512" y="80" xlink:href="#p" />
<use x="528" y="80" xlink:href="#p" />
<use x="576" y="80" xlink:href="#p" />
<use x="608" y="80" xlink:href="#p" />
<use x="624" y="80" xlink:href="#p" />
<use x="640" y="80" xlink:href="#p" />
<use x="672" y="80" xlink:href="#p" />
<use x="32" y="96" xlink:href="#p" />
<use x="64" y="96" xlink:href="#p" />
<use x="80" y="96" xlink:href="#p" />
<use x="96" y="96" xlink:href="#p" />
<use x="128" y="96" xlink:href="#p" />
<use x="160" y="96" xlink:href="#p" />
<use x="224" y="96" xlink:href="#p" />
<use x="256" y="96" xlink:href="#p" />
<use x="288" y="96" xlink:href="#p" />
<use x="304" y="96" xlink:href="#p" />
<use x="352" y="96" xlink:href="#p" />
<use x="384" y="96" xlink:href="#p" />
<use x="464" y="96" xlink:href="#p" />
<use x="512" y="96" xlink:href="#p" />
<use x="528" y="96" xlink:href="#p" />
<use x="576" y="96" xlink:href="#p" />
<use x="608" y="96" xlink:href="#p" />
<use x="624" y="96" xlink:href="#p" />
<use x="640" y="96" xlink:href="#p" />
<use x="672" y="96" xlink:href="#p" />
<use x="32" y="112" xlink:href="#p" />
<use x="128" y="112" xlink:href="#p" />
<use x="160" y="112" xlink:href="#p" />
<use x="240" y="112" xlink:href="#p" />
<use x="256" y="112" xlink:href="#p" />
<use x="288" y="112" xlink:href="#p" />
<use x="320" y="112" xlink:href="#p" />
<use x="336" y="112" xlink:href="#p" />
<use x="368" y="112" xlink:href="#p" />
<use x="400" y="112" xlink:href="#p" />
<use x="416" y="112" xlink:href="#p" />
<use x="480" y="112" xlink:href="#p" />
<use x="496" y="112" xlink:href="#p" />
<use x="544" y="112" xlink:href="#p" />
<use x="576" y="112" xlink:href="#p" />
<use x="672" y="112" xlink:href="#p" />
<use x="32" y="128" xlink:href="#p" />
<use x="48" y="128" xlink:href="#p" />
<use x="64" y="128" xlink:href="#p" />
<use x="80" y="128" xlink:href="#p" />
<use x="96" y="128" xlink:href="#p" />
<use x="112" y="128" xlink:href="#p" />
<use x="128" y="128" xlink:href="#p" />
<use x="160" y="128" xlink:href="#p" />
<use x="192" y="128" xlink:href="#p" />
<use x="224" y="128" xlink:href="#p" />
<use x="256" y="128" xlink:href="#p" />
<use x="288" y="128" xlink:href="#p" />
<use x="320" y="128" xlink:href="#p" />
<use x="352" y="128" xlink:href="#p" />
<use x="384" y="128" xlink:href="#p" />
<use x="416" y="128" xlink:href="#p" />
<use x="448" y="128" xlink:href="#p" />
<use x="480" y="128" xlink:href="#p" />
<use x="512" y="128" xlink:href="#p" />
<use x="544" y="128" xlink:href="#p" />
<use x="576" y="128" xlink:href="#p" />
<use x="592" y="128" xlink:href="#p" />
<use x="608" y="128" xlink:href="#p" />
<use x="624" y="128" xlink:href="#p" />
<use x="640" y="128" xlink:href="#p" />
<use x="656" y="128" xlink:href="#p" />
<use x="672" y="128" xlink:href="#p" />
<use x="192" y="144" xlink:href="#p" />
<use x="256" y="144" xlink:href="#p" />
<use x="272" y="144" xlink:href="#p" />
<use x="288" y="144" xlink:href="#p" />
<use x="304" y="144" xlink:href="#p" />
<use x="336" y="144" xlink:href="#p" />
<use x="400" y="144" xlink:href="#p" />
<use x="528" y="144" xlink:href="#p" />
<use x="48" y="160" xlink:href="#p" />
<use x="64" y="160" xlink:href="#p" />
<use x="80" y="160" xlink:href="#p" />
<use x="96" y="160" xlink:href="#p" />
<use x="112" y="160" xlink:href="#p" />
<use x="128" y="160" xlink:href="#p" />
<use x="144" y="160" xlink:href="#p" />
<use x="176" y="160" xlink:href="#p" />
<use x="208" y="160" xlink:href="#p" />
<use x="256" y="160" xlink:href="#p" />
<use x="272" y="160" xlink:href="#p" />
<use x="304" y="160" xlink:href="#p" />
<use x="320" y="160" xlink:href="#p" />
<use x="368" y="160" xlink:href="#p" />
<use x="400" y="160" xlink:href="#p" />
<use x="496" y="160" xlink:href="#p" />
<use x="544" y="160" xlink:href="#p" />
<use x="592" y="160" xlink:href="#p" />
<use x="608" y="160" xlink:href="#p" />
<use x="672" y="160" xlink:href="#p" />
<use x="64" y="176" xlink:href="#p" />
<use x="96" y="176" xlink:href="#p" />
<use x="112" y="176" xlink:href="#p" />
<use x="144" y="176" xlink:href="#p" />
<use x="176" y="176" xlink:href="#p" />
<use x="208" y="176" xlink:href="#p" />
<use x="240" y="176" xlink:href="#p" />
<use x="288" y="176" xlink:href="#p" />
<use x="320" y="176" xlink:href="#p" />
<use x="336" y="176" xlink:href="#p" />
<use x="352" y="176" xlink:href="#p" />
<use x="384" y="176" xlink:href="#p" />
<use x="432" y="176" xlink:href="#p" />
<use x="496" y="176" xlink:href="#p" />
<use x="512" y="176" xlink:href="#p" />
<use x="528" y="176" xlink:href="#p" />
<use x="544" y="176" xlink:href="#p" />
<use x="576" y="176" xlink:href="#p" />
<use x="592" y="176" xlink:href="#p" />
<use x="608" y="176" xlink:href="#p" />
<use x="640" y="176" xlink:href="#p" />
<use x="48" y="192" xlink:href="#p" />
<use x="80" y="192" xlink:href="#p" />
<use x="112" y="192" xlink:href="#p" />
<use x="128" y="192" xlink:href="#p" />
<use x="160" y="192" xlink:href="#p" />
<use x="176" y="192" xlink:href="#p" />
<use x="208" y="192" xlink:href="#p" />
<use x="240" y="192" xlink:href="#p" />
<use x="304" y="192" xlink:href="#p" />
<use x="320" y="192" xlink:href="#p" />
<use x="352" y="192" xlink:href="#p" />
<use x="384" y="192" xlink:href="#p" />
<use x="416" y="192" xlink:href="#p" />
<use x="432" y="192" xlink:href="#p" />
<use x="464" y="192" xlink:href="#p" />
<use x="480" y="192" xlink:href="#p" />
<use x="496" y="192" xlink:href="#p" />
<use x="512" y="192" xlink:href="#p" />
<use x="544" y="192" xlink:href="#p" />
<use x="560" y="192" xlink:href="#p" />
<use x="576" y="192" xlink:href="#p" />
<use x="592" y="192" xlink:href="#p" />
<use x="656" y="192" xlink:href="#p" />
<use x="32" y="208" xlink:href="#p" />
<use x="64" y="208" xlink:href="#p" />
<use x="80" y="208" xlink:href="#p" />
<use x="112" y="208" xlink:href="#p" />
<use x="320" y="208" xlink:href="#p" />
<use x="336" y="208" xlink:href="#p" />
<use x="352" y="208" xlink:href="#p" />
<use x="368" y="208" xlink:href="#p" />
<use x="400" y="208" xlink:href="#p" />
<use x="416" y="208" xlink:href="#p" />
<use x="448" y="208" xlink:href="#p" />
<use x="464" y="208" xlink:href="#p" />
<use x="480" y="208" xlink:href="#p" />
<use x="496" y="208" xlink:href="#p" />
<use x="528" y="208" xlink:href="#p" />
<use x="544" y="208" xlink:href="#p" />
<use x="576" y="208" xlink:href="#p" />
<use x="624" y="208" xlink:href="#p" />
<use x="672" y="208" xlink:href="#p" />
<use x="112" y="224" xlink:href="#p" />
<use x="128" y="224" xlink:href="#p" />
<use x="176" y="224" xlink:href="#p" />
<use x="208" y="224" xlink:href="#p" />
<use x="224" y="224" xlink:href="#p" />
<use x="272" y="224" xlink:href="#p" />
<use x="288" y="224" xlink:href="#p" />
<use x="304" y="224" xlink:href="#p" />
<use x="320" y="224" xlink:href="#p" />
<use x="352" y="224" xlink:href="#p" />
<use x="384" y="224" xlink:href="#p" />
<use x="448" y="224" xlink:href="#p" />
<use x="464" y="224" xlink:href="#p" />
<use x="480" y="224" xlink:href="#p" />
<use x="528" y="224" xlink:href="#p" />
<use x="544" y="224" xlink:href="#p" />
<use x="576" y="224" xlink:href="#p" />
<use x="592" y="224" xlink:href="#p" />
<use x="624" y="224" xlink:href="#p" />
<use x="640" y="224" xlink:href="#p" />
<use x="656" y="224" xlink:href="#p" />
<use x="672" y="224" xlink:href="#p" />
<use x="32" y="240" xlink:href="#p" />
<use x="48" y="240" xlink:href="#p" />
<use x="64" y="240" xlink:href="#p" />
<use x="96" y="240" xlink:href="#p" />
<use x="192" y="240" xlink:href="#p" />
<use x="224" y="240" xlink:href="#p" />
<use x="288" y="240" xlink:href="#p" />
<use x="368" y="240" xlink:href="#p" />
<use x="384" y="240" xlink:href="#p" />
<use x="416" y="240" xlink:href="#p" />
<use x="464" y="240" xlink:href="#p" />
<use x="480" y="240" xlink:href="#p" />
<use x="496" y="240" xlink:href="#p" />
<use x="512" y="240" xlink:href="#p" />
<use x="544" y="240" xlink:href="#p" />
<use x="608" y="240" xlink:href="#p" />
<use x="624" y="240" xlink:href="#p" />
<use x="640" y="240" xlink:href="#p" />
<use x="656" y="240" xlink:href="#p" />
<use x="672" y="240" xlink:href="#p" />
<use x="32" y="256" xlink:href="#p" />
<use x="64" y="256" xlink:href="#p" />
<use x="128" y="256" xlink:href="#p" />
<use x="160" y="256" xlink:href="#p" />
<use x="288" y="256" xlink:href="#p" />
<use x="304" y="256" xlink:href="#p" />
<use x="352" y="256" xlink:href="#p" />
<use x="368" y="256" xlink:href="#p" />
<use x="432" y="256" xlink:href="#p" />
<use x="496" y="256" xlink:href="#p" />
<use x="512" y="256" xlink:href="#p" />
<use x="528" y="256" xlink:href="#p" />
<use x="544" y="256" xlink:href="#p" />
<use x="560" y="256" xlink:href="#p" />
<use x="592" y="256" xlink:href="#p" />
<use x="608" y="256" xlink:href="#p" />
<use x="656" y="256" xlink:href="#p" />
<use x="48" y="272" xlink:href="#p" />
<use x="96" y="272" xlink:href="#p" />
<use x="112" y="272" xlink:href="#p" />
<use x="208" y="272" xlink:href="#p" />
<use x="224" y="272" xlink:href="#p" />
<use x="240" y="272" xlink:href="#p" />
<use x="256" y="272" xlink:href="#p" />
<use x="272" y="272" xlink:href="#p" />
<use x="304" y="272" xlink:href="#p" />
<use x="320" y="272" xlink:href="#p" />
<use x="352" y="272" xlink:href="#p" />
<use x="368" y="272" xlink:href="#p" />
<use x="384" y="272" xlink:href="#p" />
<use x="416" y="272" xlink:href="#p" />
<use x="448" y="272" xlink:href="#p" />
<use x="544" y="272" xlink:href="#p" />
<use x="576" y="272" xlink:href="#p" />
<use x="608" y="272" xlink:href="#p" />
<use x="640" y="272" xlink:href="#p" />
<use x="672" y="272" xlink:href="#p" />
<use x="80" y="288" xlink:href="#p" />
<use x="96" y="288" xlink:href="#p" />
<use x="112" y="288" xlink:href="#p" />
<use x="128" y="288" xlink:href="#p" />
<use x="144" y="288" xlink:href="#p" />
<use x="160" y="288" xlink:href="#p" />
<use x="176" y="288" xlink:href="#p" />
<use x="224" y="288" xlink:href="#p" />
<use x="240" y="288" xlink:href="#p" />
<use x="320" y="288" xlink:href="#p" />
<use x="336" y="288" xlink:href="#p" />
<use x="416" y="288" xlink:href="#p" />
<use x="432" y="288" xlink:href="#p" />
<use x="448" y="288" xlink:href="#p" />
<use x="464" y="288" xlink:href="#p" />
<use x="480" y="288" xlink:href="#p" />
<use x="496" y="288" xlink:href="#p" />
<use x="544" y="288" xlink:href="#p" />
<use x="560" y="288" xlink:href="#p" />
<use x="592" y="288" xlink:href="#p" />
<use x="640" y="288" xlink:href="#p" />
<use x="656" y="288" xlink:href="#p" />
<use x="48" y="304" xlink:href="#p" />
<use x="64" y="304" xlink:href="#p" />
<use x="80" y="304" xlink:href="#p" />
<use x="112" y="304" xlink:href="#p" />
<use x="144" y="304" xlink:href="#p" />
<use x="160" y="304" xlink:href="#p" />
<use x="176" y="304" xlink:href="#p" />
<use x="240" y="304" xlink:href="#p" />
<use x="256" y="304" xlink:href="#p" />
<use x="272" y="304" xlink:href="#p" />
<use x="288" y="304" xlink:href="#p" />
<use x="336" y="304" xlink:href="#p" />
<use x="368" y="304" xlink:href="#p" />
<use x="384" y="304" xlink:href="#p" />
<use x="432" y="304" xlink:href="#p" />
<use x="448" y="304" xlink:href="#p" />
<use x="480" y="304" xlink:href="#p" />
<use x="496" y="304" xlink:href="#p" />
<use x="576" y="304" xlink:href="#p" />
<use x="592" y="304" xlink:href="#p" />
<use x="608" y="304" xlink:href="#p" />
<use x="640" y="304" xlink:href="#p" />
<use x="656" y="304" xlink:href="#p" />
<use x="672" y="304" xlink:href="#p" />
<use x="32" y="320" xlink:href="#p" />
<use x="48" y="320" xlink:href="#p" />
<use x="80" y="320" xlink:href="#p" />
<use x="96" y="320" xlink:href="#p" />
<use x="128" y="320" xlink:href="#p" />
<use x="144" y="320" xlink:href="#p" />
<use x="192" y="320" xlink:href="#p" />
<use x="224" y="320" xlink:href="#p" />
<use x="272" y="320" xlink:href="#p" />
<use x="304" y="320" xlink:href="#p" />
<use x="336" y="320" xlink:href="#p" />
<use x="368" y="320" xlink:href="#p" />
<use x="384" y="320" xlink:href="#p" />
<use x="432" y="320" xlink:href="#p" />
<use x="448" y="320" xlink:href="#p" />
<use x="464" y="320" xlink:href="#p" />
<use x="480" y="320" xlink:href="#p" />
<use x="544" y="320" xlink:href="#p" />
<use x="560" y="320" xlink:href="#p" />
<use x="608" y="320" xlink:href="#p" />
<use x="624" y="320" xlink:href="#p" />
<use x="656" y="320" xlink:href="#p" />
<use x="48" y="336" xlink:href="#p" />
<use x="80" y="336" xlink:href="#p" />
<use x="144" y="336" xlink:href="#p" />
<use x="160" y="336" xlink:href="#p" />
<use x="176" y="336" xlink:href="#p" />
<use x="192" y="336" xlink:href="#p" />
<use x="208" y="336" xlink:href="#p" />
<use x="224" y="336" xlink:href="#p" />
<use x="240" y="336" xlink:href="#p" />
<use x="256" y="336" xlink:href="#p" />
<use x="272" y="336" xlink:href="#p" />
<use x="288" y="336" xlink:href="#p" />
<use x="320" y="336" xlink:href="#p" />
<use x="336" y="336" xlink:href="#p" />
<use x="352" y="336" xlink:href="#p" />
<use x="368" y="336" xlink:href="#p" />
<use x="384" y="336" xlink:href="#p" />
<use x="400" y="336" xlink:href="#p" />
<use x="416" y="336" xlink:href="#p" />
<use x="432" y="336" xlink:href="#p" />
<use x="528" y="336" xlink:href="#p" />
<use x="608" y="336" xlink:href="#p" />
<use x="624" y="336" xlink:href="#p" />
<use x="32" y="352" xlink:href="#p" />
<use x="48" y="352" xlink:href="#p" />
<use x="64" y="352" xlink:href="#p" />
<use x="80" y="352" xlink:href="#p" />
<use x="112" y="352" xlink:href="#p" />
<use x="128" y="352" xlink:href="#p" />
<use x="176" y="352" xlink:href="#p" />
<use x="192" y="352" xlink:href="#p" />
<use x="208" y="352" xlink:href="#p" />
<use x="240" y="352" xlink:href="#p" />
<use x="288" y="352" xlink:href="#p" />
<use x="304" y="352" xlink:href="#p" />
<use x="400" y="352" xlink:href="#p" />
<use x="448" y="352" xlink:href="#p" />
<use x="464" y="352" xlink:href="#p" />
<use x="496" y="352" xlink:href="#p" />
<use x="512" y="352" xlink:href="#p" />
<use x="528" y="352" xlink:href="#p" />
<use x="608" y="352" xlink:href="#p" />
<use x="624" y="352" xlink:href="#p" />
<use x="48" y="368" xlink:href="#p" />
<use x="80" y="368" xlink:href="#p" />
<use x="96" y="368" xlink:href="#p" />
<use x="144" y="368" xlink:href="#p" />
<use x="160" y="368" xlink:href="#p" />
<use x="176" y="368" xlink:href="#p" />
<use x="208" y="368" xlink:href="#p" />
<use x="224" y="368" xlink:href="#p" />
<use x="272" y="368" xlink:href="#p" />
<use x="288" y="368" xlink:href="#p" />
<use x="368" y="368" xlink:href="#p" />
<use x="384" y="368" xlink:href="#p" />
<use x="432" y="368" xlink:href="#p" />
<use x="464" y="368" xlink:href="#p" />
<use x="480" y="368" xlink:href="#p" />
<use x="528" y="368" xlink:href="#p" />
<use x="576" y="368" xlink:href="#p" />
<use x="608" y="368" xlink:href="#p" />
<use x="640" y="368" xlink:href="#p" />
<use x="656" y="368" xlink:href="#p" />
<use x="672" y="368" xlink:href="#p" />
<use x="32" y="384" xlink:href="#p" />
<use x="48" y="384" xlink:href="#p" />
<use x="64" y="384" xlink:href="#p" />
<use x="96" y="384" xlink:href="#p" />
<use x="128" y="384" xlink:href="#p" />
<use x="160" y="384" xlink:href="#p" />
<use x="208" y="384" xlink:href="#p" />
<use x="272" y="384" xlink:href="#p" />
<use x="288" y="384" xlink:href="#p" />
<use x="304" y="384" xlink:href="#p" />
<use x="320" y="384" xlink:href="#p" />
<use x="352" y="384" xlink:href="#p" />
<use x="368" y="384" xlink:href="#p" />
<use x="448" y="384" xlink:href="#p" />
<use x="464" y="384" xlink:href="#p" />
<use x="512" y="384" xlink:href="#p" />
<use x="528" y="384" xlink:href="#p" />
<use x="544" y="384" xlink:href="#p" />
<use x="560" y="384" xlink:href="#p" />
<use x="576" y="384" xlink:href="#p" />
<use x="592" y="384" xlink:href="#p" />
<use x="624" y="384" xlink:href="#p" />
<use x="640" y="384" xlink:href="#p" />
<use x="48" y="400" xlink:href="#p" />
<use x="80" y="400" xlink:href="#p" />
<use x="96" y="400" xlink:href="#p" />
<use x="144" y="400" xlink:href="#p" />
<use x="160" y="400" xlink:href="#p" />
<use x="208" y="400" xlink:href="#p" />
<use x="224" y="400" xlink:href="#p" />
<use x="240" y="400" xlink:href="#p" />
<use x="288" y="400" xlink:href="#p" />
<use x="304" y="400" xlink:href="#p" />
<use x="320" y="400" xlink:href="#p" />
<use x="352" y="400" xlink:href="#p" />
<use x="368" y="400" xlink:href="#p" />
<use x="384" y="400" xlink:href="#p" />
<use x="416" y="400" xlink:href="#p" />
<use x="448" y="400" xlink:href="#p" />
<use x="528" y="400" xlink:href="#p" />
<use x="576" y="400" xlink:href="#p" />
<use x="608" y="400" xlink:href="#p" />
<use x="624" y="400" xlink:href="#p" />
<use x="48" y="416" xlink:href="#p" />
<use x="80" y="416" xlink:href="#p" />
<use x="96" y="416" xlink:href="#p" />
<use x="112" y="416" xlink:href="#p" />
<use x="128" y="416" xlink:href="#p" />
<use x="160" y="416" xlink:href="#p" />
<use x="176" y="416" xlink:href="#p" />
<use x="192" y="416" xlink:href="#p" />
<use x="240" y="416" xlink:href="#p" />
<use x="400" y="416" xlink:href="#p" />
<use x="416" y="416" xlink:href="#p" />
<use x="432" y="416" xlink:href="#p" />
<use x="448" y="416" xlink:href="#p" />
<use x="496" y="416" xlink:href="#p" />
<use x="512" y="416" xlink:href="#p" />
<use x="528" y="416" xlink:href="#p" />
<use x="624" y="416" xlink:href="#p" />
<use x="640" y="416" xlink:href="#p" />
<use x="672" y="416" xlink:href="#p" />
<use x="80" y="432" xlink:href="#p" />
<use x="96" y="432" xlink:href="#p" />
<use x="160" y="432" xlink:href="#p" />
<use x="208" y="432" xlink:href="#p" />
<use x="224" y="432" xlink:href="#p" />
<use x="288" y="432" xlink:href="#p" />
<use x="352" y="432" xlink:href="#p" />
<use x="432" y="432" xlink:href="#p" />
<use x="480" y="432" xlink:href="#p" />
<use x="512" y="432" xlink:href="#p" />
<use x="528" y="432" xlink:href="#p" />
<use x="576" y="432" xlink:href="#p" />
<use x="592" y="432" xlink:href="#p" />
<use x="608" y="432" xlink:href="#p" />
<use x="624" y="432" xlink:href="#p" />
<use x="112" y="448" xlink:href="#p" />
<use x="128" y="448" xlink:href="#p" />
<use x="160" y="448" xlink:href="#p" />
<use x="192" y="448" xlink:href="#p" />
<use x="208" y="448" xlink:href="#p" />
<use x="224" y="448" xlink:href="#p" />
<use x="272" y="448" xlink:href="#p" />
<use x="288" y="448" xlink:href="#p" />
<use x="304" y="448" xlink:href="#p" />
<use x="320" y="448" xlink:href="#p" />
<use x="416" y="448" xlink:href="#p" />
<use x="432" y="448" xlink:href="#p" />
<use x="464" y="448" xlink:href="#p" />
<use x="480" y="448" xlink:href="#p" />
<use x="496" y="448" xlink:href="#p" />
<use x="512" y="448" xlink:href="#p" />
<use x="544" y="448" xlink:href="#p" />
<use x="560" y="448" xlink:href="#p" />
<use x="592" y="448" xlink:href="#p" />
<use x="32" y="464" xlink:href="#p" />
<use x="96" y="464" xlink:href="#p" />
<use x="112" y="464" xlink:href="#p" />
<use x="144" y="464" xlink:href="#p" />
<use x="208" y="464" xlink:href="#p" />
<use x="224" y="464" xlink:href="#p" />
<use x="256" y="464" xlink:href="#p" />
<use x="400" y="464" xlink:href="#p" />
<use x="432" y="464" xlink:href="#p" />
<use x="448" y="464" xlink:href="#p" />
<use x="464" y="464" xlink:href="#p" />
<use x="480" y="464" xlink:href="#p" />
<use x="496" y="464" xlink:href="#p" />
<use x="528" y="464" xlink:href="#p" />
<use x="544" y="464" xlink:href="#p" />
<use x="624" y="464" xlink:href="#p" />
<use x="48" y="480" xlink:href="#p" />
<use x="112" y="480" xlink:href="#p" />
<use x="128" y="480" xlink:href="#p" />
<use x="192" y="480" xlink:href="#p" />
<use x="208" y="480" xlink:href="#p" />
<use x="224" y="480" xlink:href="#p" />
<use x="240" y="480" xlink:href="#p" />
<use x="256" y="480" xlink:href="#p" />
<use x="272" y="480" xlink:href="#p" />
<use x="288" y="480" xlink:href="#p" />
<use x="304" y="480" xlink:href="#p" />
<use x="320" y="480" xlink:href="#p" />
<use x="368" y="480" xlink:href="#p" />
<use x="384" y="480" xlink:href="#p" />
<use x="416" y="480" xlink:href="#p" />
<use x="432" y="480" xlink:href="#p" />
<use x="496" y="480" xlink:href="#p" />
<use x="512" y="480" xlink:href="#p" />
<use x="528" y="480" xlink:href="#p" />
<use x="544" y="480" xlink:href="#p" />
<use x="560" y="480" xlink:href="#p" />
<use x="624" y="480" xlink:href="#p" />
<use x="640" y="480" xlink:href="#p" />
<use x="656" y="480" xlink:href="#p" />
<use x="672" y="480" xlink:href="#p" />
<use x="32" y="496" xlink:href="#p" />
<use x="80" y="496" xlink:href="#p" />
<use x="96" y="496" xlink:href="#p" />
<use x="144" y="496" xlink:href="#p" />
<use x="160" y="496" xlink:href="#p" />
<use x="176" y="496" xlink:href="#p" />
<use x="256" y="496" xlink:href="#p" />
<use x="288" y="496" xlink:href="#p" />
<use x="320" y="496" xlink:href="#p" />
<use x="336" y="496" xlink:href="#p" />
<use x="368" y="496" xlink:href="#p" />
<use x="384" y="496" xlink:href="#p" />
<use x="432" y="496" xlink:href="#p" />
<use x="464" y="496" xlink:href="#p" />
<use x="512" y="496" xlink:href="#p" />
<use x="528" y="496" xlink:href="#p" />
<use x="560" y="496" xlink:href="#p" />
<use x="624" y="496" xlink:href="#p" />
<use x="640" y="496" xlink:href="#p" />
<use x="656" y="496" xlink:href="#p" />
<use x="672" y="496" xlink:href="#p" />
<use x="32" y="512" xlink:href="#p" />
<use x="64" y="512" xlink:href="#p" />
<use x="96" y="512" xlink:href="#p" />
<use x="112" y="512" xlink:href="#p" />
<use x="128" y="512" xlink:href="#p" />
<use x="160" y="512" xlink:href="#p" />
<use x="192" y="512" xlink:href="#p" />
<use x="224" y="512" xlink:href="#p" />
<use x="256" y="512" xlink:href="#p" />
<use x="272" y="512" xlink:href="#p" />
<use x="320" y="512" xlink:href="#p" />
<use x="352" y="512" xlink:href="#p" />
<use x="400" y="512" xlink:href="#p" />
<use x="416" y="512" xlink:href="#p" />
<use x="464" y="512" xlink:href="#p" />
<use x="512" y="512" xlink:href="#p" />
<use x="528" y="512" xlink:href="#p" />
<use x="544" y="512" xlink:href="#p" />
<use x="560" y="512" xlink:href="#p" />
<use x="576" y="512" xlink:href="#p" />
<use x="608" y="512" xlink:href="#p" />
<use x="624" y="512" xlink:href="#p" />
<use x="640" y="512" xlink:href="#p" />
<use x="656" y="512" xlink:href="#p" />
<use x="672" y="512" xlink:href="#p" />
<use x="32" y="528" xlink:href="#p" />
<use x="64" y="528" xlink:href="#p" />
<use x="80" y="528" xlink:href="#p" />
<use x="112" y="528" xlink:href="#p" />
<use x="192" y="528" xlink:href="#p" />
<use x="224" y="528" xlink:href="#p" />
<use x="288" y="528" xlink:href="#p" />
<use x="304" y="528" xlink:href="#p" />
<use x="320" y="528" xlink:href="#p" />
<use x="336" y="528" xlink:href="#p" />
<use x="352" y="528" xlink:href="#p" />
<use x="368" y="528" xlink:href="#p" />
<use x="400" y="528" xlink:href="#p" />
<use x="448" y="528" xlink:href="#p" />
<use x="464" y="528" xlink:href="#p" />
<use x="560" y="528" xlink:href="#p" />
<use x="576" y="528" xlink:href="#p" />
<use x="608" y="528" xlink:href="#p" />
<use x="640" y="528" xlink:href="#p" />
<use x="672" y="528" xlink:href="#p" />
<use x="32" y="544" xlink:href="#p" />
<use x="64" y="544" xlink:href="#p" />
<use x="96" y="544" xlink:href="#p" />
<use x="128" y="544" xlink:href="#p" />
<use x="176" y="544" xlink:href="#p" />
<use x="224" y="544" xlink:href="#p" />
<use x="272" y="544" xlink:href="#p" />
<use x="320" y="544" xlink:href="#p" />
<use x="400" y="544" xlink:href="#p" />
<use x="416" y="544" xlink:href="#p" />
<use x="448" y="544" xlink:href="#p" />
<use x="544" y="544" xlink:href="#p" />
<use x="560" y="544" xlink:href="#p" />
<use x="576" y="544" xlink:href="#p" />
<use x="592" y="544" xlink:href="#p" />
<use x="608" y="544" xlink:href="#p" />
<use x="640" y="544" xlink:href="#p" />
<use x="656" y="544" xlink:href="#p" />
<use x="672" y="544" xlink:href="#p" />
<use x="160" y="560" xlink:href="#p" />
<use x="176" y="560" xlink:href="#p" />
<use x="192" y="560" xlink:href="#p" />
<use x="208" y="560" xlink:href="#p" />
<use x="224" y="560" xlink:href="#p" />
<use x="368" y="560" xlink:href="#p" />
<use x="384" y="560" xlink:href="#p" />
<use x="400" y="560" xlink:href="#p" />
<use x="448" y="560" xlink:href="#p" />
<use x="496" y="560" xlink:href="#p" />
<use x="528" y="560" xlink:href="#p" />
<use x="544" y="560" xlink:href="#p" />
<use x="608" y="560" xlink:href="#p" />
<use x="640" y="560" xlink:href="#p" />
<use x="656" y="560" xlink:href="#p" />
<use x="672" y="560" xlink:href="#p" />
<use x="32" y="576" xlink:href="#p" />
<use x="48" y="576" xlink:href="#p" />
<use x="64" y="576" xlink:href="#p" />
<use x="80" y="576" xlink:href="#p" />
<use x="96" y="576" xlink:href="#p" />
<use x="112" y="576" xlink:href="#p" />
<use x="128" y="576" xlink:href="#p" />
<use x="160" y="576" xlink:href="#p" />
<use x="256" y="576" xlink:href="#p" />
<use x="272" y="576" xlink:href="#p" />
<use x="304" y="576" xlink:href="#p" />
<use x="320" y="576" xlink:href="#p" />
<use x="352" y="576" xlink:href="#p" />
<use x="384" y="576" xlink:href="#p" />
<use x="480" y="576" xlink:href="#p" />
<use x="496" y="576" xlink:href="#p" />
<use x="544" y="576" xlink:href="#p" />
<use x="576" y="576" xlink:href="#p" />
<use x="608" y="576" xlink:href="#p" />
<use x="624" y="576" xlink:href="#p" />
<use x="640" y="576" xlink:href="#p" />
<use x="656" y="576" xlink:href="#p" />
<use x="672" y="576" xlink:href="#p" />
<use x="32" y="592" xlink:href="#p" />
<use x="128" y="592" xlink:href="#p" />
<use x="160" y="592" xlink:href="#p" />
<use x="176" y="592" xlink:href="#p" />
<use x="192" y="592" xlink:href="#p" />
<use x="224" y="592" xlink:href="#p" />
<use x="240" y="592" xlink:href="#p" />
<use x="272" y="592" xlink:href="#p" />
<use x="304" y="592" xlink:href="#p" />
<use x="320" y="592" xlink:href="#p" />
<use x="336" y="592" xlink:href="#p" />
<use x="368" y="592" xlink:href="#p" />
<use x="384" y="592" xlink:href="#p" />
<use x="400" y="592" xlink:href="#p" />
<use x="416" y="592" xlink:href="#p" />
<use x="448" y="592" xlink:href="#p" />
<use x="512" y="592" xlink:href="#p" />
<use x="528" y="592" xlink:href="#p" />
<use x="544" y="592" xlink:href="#p" />
<use x="608" y="592" xlink:href="#p" />
<use x="672" y="592" xlink:href="#p" />
<use x="32" y="608" xlink:href="#p" />
<use x="64" y="608" xlink:href="#p" />
<use x="80" y="608" xlink:href="#p" />
<use x="96" y="608" xlink:href="#p" />
<use x="128" y="608" xlink:href="#p" />
<use x="160" y="608" xlink:href="#p" />
<use x="176" y="608" xlink:href="#p" />
<use x="192" y="608" xlink:href="#p" />
<use x="240" y="608" xlink:href="#p" />
<use x="256" y="608" xlink:href="#p" />
<use x="272" y="608" xlink:href="#p" />
<use x="352" y="608" xlink:href="#p" />
<use x="384" y="608" xlink:href="#p" />
<use x="400" y="608" xlink:href="#p" />
<use x="416" y="608" xlink:href="#p" />
<use x="544" y="608" xlink:href="#p" />
<use x="560" y="608" xlink:href="#p" />
<use x="576" y="608" xlink:href="#p" />
<use x="592" y="608" xlink:href="#p" />
<use x="608" y="608" xlink:href="#p" />
<use x="32" y="624" xlink:href="#p" />
<use x="64" y="624" xlink:href="#p" />
<use x="80" y="624" xlink:href="#p" />
<use x="96" y="624" xlink:href="#p" />
<use x="128" y="624" xlink:href="#p" />
<use x="160" y="624" xlink:href="#p" />
<use x="192" y="624" xlink:href="#p" />
<use x="208" y="624" xlink:href="#p" />
<use x="304" y="624" xlink:href="#p" />
<use x="368" y="624" xlink:href="#p" />
<use x="416" y="624" xlink:href="#p" />
<use x="448" y="624" xlink:href="#p" />
<use x="480" y="624" xlink:href="#p" />
<use x="496" y="624" xlink:href="#p" />
<use x="512" y="624" xlink:href="#p" />
<use x="528" y="624" xlink:href="#p" />
<use x="560" y="624" xlink:href="#p" />
<use x="592" y="624" xlink:href="#p" />
<use x="640" y="624" xlink:href="#p" />
<use x="656" y="624" xlink:href="#p" />
<use x="32" y="640" xlink:href="#p" />
<use x="64" y="640" xlink:href="#p" />
<use x="80" y="640" xlink:href="#p" />
<use x="96" y="640" xlink:href="#p" />
<use x="128" y="640" xlink:href="#p" />
<use x="160" y="640" xlink:href="#p" />
<use x="176" y="640" xlink:href="#p" />
<use x="224" y="640" xlink:href="#p" />
<use x="240" y="640" xlink:href="#p" />
<use x="256" y="640" xlink:href="#p" />
<use x="272" y="640" xlink:href="#p" />
<use x="304" y="640" xlink:href="#p" />
<use x="336" y="640" xlink:href="#p" />
<use x="384" y="640" xlink:href="#p" />
<use x="432" y="640" xlink:href="#p" />
<use x="480" y="640" xlink:href="#p" />
<use x="496" y="640" xlink:href="#p" />
<use x="544" y="640" xlink:href="#p" />
<use x="560" y="640" xlink:href="#p" />
<use x="576" y="640" xlink:href="#p" />
<use x="592" y="640" xlink:href="#p" />
<use x="608" y="640" xlink:href="#p" />
<use x="624" y="640" xlink:href="#p" />
<use x="640" y="640" xlink:href="#p" />
<use x="656" y="640" xlink:href="#p" />
<use x="32" y="656" xlink:href="#p" />
<use x="128" y="656" xlink:href="#p" />
<use x="160" y="656" xlink:href="#p" />
<use x="208" y="656" xlink:href="#p" />
<use x="224" y="656" xlink:href="#p" />
<use x="256" y="656" xlink:href="#p" />
<use x="288" y="656" xlink:href="#p" />
<use x="336" y="656" xlink:href="#p" />
<use x="384" y="656" xlink:href="#p" />
<use x="400" y="656" xlink:href="#p" />
<use x="416" y="656" xlink:href="#p" />
<use x="464" y="656" xlink:href="#p" />
<use x="512" y="656" xlink:href="#p" />
<use x="528" y="656" xlink:href="#p" />
<use x="544" y="656" xlink:href="#p" />
<use x="560" y="656" xlink:href="#p" />
<use x="576" y="656" xlink:href="#p" />
<use x="608" y="656" xlink:href="#p" />
<use x="640" y="656" xlink:href="#p" />
<use x="656" y="656" xlink:href="#p" />
<use x="32" y="672" xlink:href="#p" />
<use x="48" y="672" xlink:href="#p" />
<use x="64" y="672" xlink:href="#p" />
<use x="80" y="672" xlink:href="#p" />
<use x="96" y="672" xlink:href="#p" />
<use x="112" y="672" xlink:href="#p" />
<use x="128" y="672" xlink:href="#p" />
<use x="224" y="672" xlink:href="#p" />
<use x="256" y="672" xlink:href="#p" />
<use x="304" y="672" xlink:href="#p" />
<use x="320" y="672" xlink:href="#p" />
<use x="336" y="672" xlink:href="#p" />
<use x="352" y="672" xlink:href="#p" />
<use x="368" y="672" xlink:href="#p" />
<use x="384" y="672" xlink:href="#p" />
<use x="416" y="672" xlink:href="#p" />
<use x="464" y="672" xlink:href="#p" />
<use x="496" y="672" xlink:href="#p" />
<use x="528" y="672" xlink:href="#p" />
<use x="544" y="672" xlink:href="#p" />
<use x="592" y="672" xlink:href="#p" />
<use x="608" y="672" xlink:href="#p" />
<use x="624" y="672" xlink:href="#p" />
</g>
</svg>